<svg data-v-6805eed4="" version="1.0" xmlns="http://www.w3.org/2000/svg" xmlns:xlink="http://www.w3.org/1999/xlink" viewBox="0 0 340.000000 250.000000" preserveAspectRatio="xMidYMid meet" color-interpolation-filters="sRGB" style="margin: auto;"><rect data-v-6805eed4="" x="0" y="0" width="100%" height="100%" fill="#0a0619" fill-opacity="1" class="background"/><rect data-v-6805eed4="" x="0" y="0" width="100%" height="100%" fill="url(#watermark)" fill-opacity="1" class="watermarklayer"/><g data-v-6805eed4="" fill="#e16df5" class="basesvg" transform="translate(112.8239974975586,80.18134689331055)"><g fill-rule="" class="tp-name" transform="translate(0,0)"><g transform="scale(0.6999999999999994)"><g stroke="#FFFFFF" stroke-width="2.9" stroke-linecap="round" stroke-linejoin="round" paint-order="stroke" data-gra-ignore-stroke="true" fill-opacity="1" fill="url(#bdbecbf1-7706-40be-b42c-2790c5843f07)"><path d="M2.54-54.579C2.54-19.362000000000002 13.5-6.699 29.02-13.293000000000001 36.52-15.959999999999999 43.27-21.230999999999998 47.77-27.132Q47.77-38.05200000000001 47.77-48.992999999999995 49.76-49.161 51.75-49.308 51.75-54.43200000000001 51.75-59.556000000000004 39.34-59.22 26.93-58.716 26.93-52.71000000000001 26.93-46.683 32.14-47.376 37.35-47.98500000000001 37.35-40.614000000000004 37.35-33.243C35.02-31.269000000000002 32.54-29.946 29.92-29.294999999999998 20.02-26.481 13.42-36.036 13.42-55.629 13.42-74.80199999999999 19.88-85.47000000000001 28.13-84.29400000000001 30.9-83.91600000000001 33.45-83.07600000000001 35.77-82.194Q36.22-75.075 36.67-67.977 41.73-67.85100000000001 46.8-67.746 46.8-79.506 46.8-91.287C41.17-95.487 36.22-98.91000000000001 28.35-100.653 13.57-104.37 2.54-89.355 2.54-54.579Q2.54-54.579 2.54-54.579M55.5-21.777Q76.23-24.150000000000002 96.97-23.415000000000003 96.97-34.692 96.97-45.969 93.07-46.137 89.17-46.242000000000004 88.83-41.139 88.5-36.036 79.8-36.141000000000005 71.09-35.867999999999995 71.09-44.415 71.09-52.983000000000004 78.3-53.067 85.5-53.067 85.5-57.792 85.5-62.559 78.3-62.559 71.09-62.559 71.09-71.316 71.09-80.07300000000001 79.8-79.884 88.5-79.968 88.83-74.84400000000001 89.17-69.741 93.07-69.783 96.97-69.846 96.97-81.123 96.97-93.324 76.23-92.79899999999999 55.5-94.458 55.5-87.29700000000001 55.5-80.97600000000001 57.94-80.787 60.38-80.619 60.38-57.813 60.38-35.007000000000005 57.94-34.734 55.5-34.44 55.5-28.098000000000003 55.5-21.777M101.63-35.153999999999996Q101.63-28.980000000000004 101.63-22.806 111.64-21.021 121.65-18.501 121.65-25.305000000000003 121.65-32.13 119.43-32.571 117.22-32.97 117.22-56.342999999999996 117.22-79.69500000000001 123.22-54.411 129.22-27.069000000000003 133.72-25.830000000000002 138.22-24.486 144.22-52.647000000000006 150.22-83.496 150.22-53.97 150.22-24.444000000000003 148.05-25.158 145.88-25.851000000000003 145.88-17.724 145.88-9.618 155.88-4.977 165.9 0.042 165.9-9.408000000000001 165.9-18.879 163.41-19.803 160.94-20.727 160.94-54.264 160.94-87.822 163.41-88.2 165.9-88.578 165.9-98.028 165.9-107.45700000000001 155.36-104.622 144.82-101.871 139.26-73.605 133.72-47.922000000000004 128.16-72.97500000000001 122.63-96.852 112.13-95.06700000000001 101.63-93.744 101.63-86.688 101.63-80.51400000000001 104.06-80.682 106.5-80.871 106.5-57.729 106.5-34.608000000000004 104.06-34.902 101.63-35.153999999999996" transform="translate(-2.5399999618530273, 107.45700073242188)"/></g></g></g><g data-gra="path-slogan" fill-rule="evenodd" class="tp-slogan" fill="url(#940beffd-544c-4f14-b9f0-28a4932779c0)" transform="translate(5,72.24930572509766)"><rect fill="none" x="0" height="0" y="8.196959495544434" width="8.037002563476562"/><rect fill="none" height="0" y="8.196959495544434" width="8.037002563476562" x="96.31500244140625"/><g transform="translate(11.037002563476562,0)"><g transform="scale(1.2600000000000002)"><path d="M 52.5 11 L 55.4 3.7 L 56.3 4.1 L 57.2 9.7 L 57.4 11.5 L 57.4 11.6 A 230.7 230.7 0 0 0 57.8 10.4 A 19.4 19.4 0 0 1 58.2 9.2 L 59.7 5.4 L 60.6 5.7 L 57.7 13.1 L 56.8 12.7 L 55.9 7 L 55.7 5.2 L 55.7 5.2 Q 55.5 5.8 55.3 6.4 Q 55.1 7 54.9 7.5 L 53.4 11.4 L 52.5 11 Z M 39.9 1.1 L 39.3 1.7 A 2.8 2.8 0 0 0 38.7 1.2 A 2.1 2.1 0 0 0 37.7 0.9 A 2.5 2.5 0 0 0 36.6 1 A 2.3 2.3 0 0 0 35.7 1.6 A 3 3 0 0 0 35.2 2.6 A 4.4 4.4 0 0 0 34.9 3.9 A 4.8 4.8 0 0 0 35 5.2 A 3 3 0 0 0 35.4 6.3 A 2.2 2.2 0 0 0 36.2 7 Q 36.7 7.2 37.3 7.3 A 2.5 2.5 0 0 0 38.1 7.2 A 1.7 1.7 0 0 0 38.7 6.9 L 38.9 4.9 L 37.2 4.8 L 37.3 3.9 L 39.8 4.1 L 39.6 7.4 A 2.9 2.9 0 0 1 38.6 8 Q 37.9 8.2 37.1 8.1 A 3.6 3.6 0 0 1 35.7 7.8 A 3.1 3.1 0 0 1 34.7 6.9 A 3.7 3.7 0 0 1 34 5.6 Q 33.8 4.8 33.9 3.9 A 5 5 0 0 1 34.2 2.2 A 3.7 3.7 0 0 1 35.1 0.9 Q 35.6 0.4 36.3 0.2 A 3.7 3.7 0 0 1 37.7 0 A 2.8 2.8 0 0 1 39.1 0.4 Q 39.6 0.7 39.9 1.1 Z M 6.7 12.4 L 7 11.5 A 3.3 3.3 0 0 0 8.1 11.8 A 2.7 2.7 0 0 0 9.3 11.6 A 1.9 1.9 0 0 0 10.3 10.8 A 1.1 1.1 0 0 0 10.4 9.8 Q 10.3 9.5 10.1 9.4 A 1.1 1.1 0 0 0 9.7 9.1 Q 9.5 9.1 9.2 9 A 32.8 32.8 0 0 0 8.6 9 L 7.4 9 Q 7.1 9 6.8 8.9 Q 6.5 8.9 6.2 8.7 A 2 2 0 0 1 5.6 8.3 A 1.9 1.9 0 0 1 5.2 7.7 A 1.9 1.9 0 0 1 5 6.8 Q 5.1 6.4 5.3 6 A 2.4 2.4 0 0 1 5.8 5.3 Q 6.2 5 6.7 4.8 A 3.2 3.2 0 0 1 8 4.6 A 3.3 3.3 0 0 1 9.2 4.9 L 9 5.7 A 2.8 2.8 0 0 0 8 5.4 Q 7.5 5.4 7 5.6 A 1.7 1.7 0 0 0 6.2 6.3 A 1 1 0 0 0 6.1 7.2 A 1 1 0 0 0 6.4 7.7 A 1.2 1.2 0 0 0 6.8 7.9 Q 7 7.9 7.3 8 A 6.2 6.2 0 0 0 7.8 8 L 9 8 A 4.8 4.8 0 0 1 9.7 8.1 A 2.3 2.3 0 0 1 10.4 8.3 Q 10.7 8.4 10.9 8.7 Q 11.1 8.9 11.3 9.4 A 2.1 2.1 0 0 1 11.5 10.2 A 2.1 2.1 0 0 1 11.2 11.1 A 2.5 2.5 0 0 1 10.6 11.9 A 3.3 3.3 0 0 1 9.6 12.4 A 3.8 3.8 0 0 1 8.1 12.7 A 3.8 3.8 0 0 1 6.7 12.4 Z M 48.1 9.7 L 47.8 7.2 L 45 6.6 L 43.8 8.8 L 42.8 8.6 L 47.1 1.5 L 48.2 1.7 L 49.1 10 L 48.1 9.7 Z M 15.9 10.1 L 14 2.5 L 15 2.2 L 16.6 9.1 L 20 8.2 L 20.2 9.1 L 15.9 10.1 Z M 25.2 8.1 A 3.2 3.2 0 0 0 26.5 8.3 A 3.2 3.2 0 0 0 27.9 7.9 Q 28.5 7.5 28.8 7 Q 29.2 6.4 29.4 5.6 Q 29.6 4.8 29.5 3.9 A 5.4 5.4 0 0 0 29.1 2.2 A 3.7 3.7 0 0 0 28.3 1 A 3.1 3.1 0 0 0 27.1 0.3 A 3.2 3.2 0 0 0 25.7 0.2 A 3.3 3.3 0 0 0 24.4 0.6 A 3 3 0 0 0 23.4 1.5 Q 23 2 22.9 2.8 A 5.4 5.4 0 0 0 22.8 4.5 A 5.6 5.6 0 0 0 23.2 6.2 Q 23.5 6.9 24 7.4 Q 24.5 7.9 25.2 8.1 Z M 26.5 7.4 A 2 2 0 0 0 27.4 7.1 A 2.1 2.1 0 0 0 28 6.4 A 3.2 3.2 0 0 0 28.4 5.3 A 4.9 4.9 0 0 0 28.4 4 A 4.8 4.8 0 0 0 28.1 2.7 Q 27.9 2.1 27.6 1.7 A 2.2 2.2 0 0 0 26.8 1.2 Q 26.3 1 25.8 1 Q 25.3 1.1 24.9 1.4 A 2.2 2.2 0 0 0 24.2 2.1 A 3 3 0 0 0 23.9 3.1 Q 23.7 3.7 23.8 4.4 A 4.9 4.9 0 0 0 24.1 5.7 Q 24.3 6.3 24.7 6.7 Q 25 7.1 25.5 7.3 A 2 2 0 0 0 26.5 7.4 Z M 45.5 5.9 L 47.8 6.4 L 47.7 5.1 A 44.8 44.8 0 0 1 47.5 3.8 Q 47.5 3.1 47.5 2.4 L 47.4 2.4 A 49.2 49.2 0 0 1 46.8 3.6 A 44.8 44.8 0 0 1 46.1 4.8 L 45.5 5.9 Z M 0.4 13.8 L 0 13.2 L 2.4 11.9 L 2.8 12.5 L 0.4 13.8 Z M 62.6 12.5 L 62.9 11.9 L 65.3 13.2 L 65 13.8 L 62.6 12.5 Z"/></g></g></g></g><defs v-gra="od"><linearGradient x1="0" y1="1" x2="0" y2="0" id="940beffd-544c-4f14-b9f0-28a4932779c0"><stop offset="0%" stop-color="#e16df5"/><stop offset="100%" stop-color="#4ef8e7"/></linearGradient><filter id="42443b3f1de60f6b6fd3b6a9844b4764" filterUnits="objectBoundingBox"><feColorMatrix type="matrix" values="0 0 0 0 0.99609375  0 0 0 0 0.99609375  0 0 0 0 0.99609375  0 0 0 1 0"/></filter><linearGradient x1="0" y1="1" x2="0" y2="0" id="bdbecbf1-7706-40be-b42c-2790c5843f07"><stop offset="0%" stop-color="#e16df5"/><stop offset="100%" stop-color="#4ef8e7"/></linearGradient><filter id="42443b3f1de60f6b6fd3b6a9844b4764" filterUnits="objectBoundingBox"><feColorMatrix type="matrix" values="0 0 0 0 0.99609375  0 0 0 0 0.99609375  0 0 0 0 0.99609375  0 0 0 1 0"/></filter></defs></svg>